<?xml version="1.0" encoding="UTF-8"?>
<!-- copyright August 2018 John Hull, ASSAIL licensed:
     https://github.com/ruminations/Licenses -->
<!DOCTYPE svg [
  <!ENTITY x_extent  "10.0">
  <!ENTITY x_view   "500.0">
  <!ENTITY y_extent  "10.0">
  <!ENTITY y_view   "500.0">
  <!ENTITY radius12ga "1.02616"><!-- 12 gauge wire radius in mm -->
  <!ENTITY dia12ga    "2.05232"><!-- 12 gauge wire diameter in mm -->
  <!ENTITY tube_out_r "1.5875"> <!-- 1/8" tubing OD radius in mm -->
  <!ENTITY tube_in_r  "1.19063"><!-- 3/32" tubing ID radius in mm -->
  <!ENTITY tube_wall  "0.39688"><!-- 1/64" tubing wall in mm -->
  <!-- schedule 80s 1-1/2" pipe (nominal OD == 1.9"  == 48.26 mm )
                              (nominal wall == .200" ==  5.08 mm ) -->
  <!ENTITY cart_out_r "23.0"><!-- finish outside radius in mm -->
  <!ENTITY cart_thd_r "22.133974"><!-- M23x1 thread inside radius in mm -->
  <!ENTITY cart_in_r  "20.0"><!-- finish  inside radius in mm -->
  <!ENTITY cart_wall   "3.0"><!-- finish wall thickness in mm -->
  <!ENTITY cart_out_d "46.0"><!-- finish outside diameter in mm -->
  <!ENTITY cart_len   "70.0"><!-- finish length in mm -->
  <!ENTITY cart_len_y "68.0"><!-- length above origin in mm -->
  ]>
<svg xmlns="http://www.w3.org/2000/svg"
     xmlns:xlink="http://www.w3.org/1999/xlink"
     enable-background="new 0 0 &x_view; &y_view;"
     width="&x_extent;cm" height="&y_extent;cm"
     viewBox="0 0 &x_view; &y_view;" x="0px"  y="0px">
  <g id="group_0" transform="translate(250.0,400.0) scale(1.0,-1.0)">
    <rect id="background" x="-250.0" y="-100.0"
      width="500.0" height="500.0"
      fill="#FFFF99" stroke-linejoin="miter"/>
    <g id="assembly" transform="scale(5.0,5.0)"><!-- 1 mm == 1.0 in this group -->
      <!-- <text id="text_0" text-anchor="middle"
        dominant-baseline="text-before-edge"
        font-family="Arial" font-size="4.0"
        transform="translate(-0.0,-0.0) scale(1.0,-1.0)"
        fill="#404040" stroke-width="0.0">example text</text> -->
      <defs id="defs_0">
        <g id="sensor">
          <!-- Steel washer section outline material: 304 stainless steel -->
          <path id="washer" d="
              M -6.8660254,0.5
              L -4.8453,-3.0
              L -6.0,-3.0
              L -7.443376,-0.5
              L -18.0,-0.5
              L -19.5,-2.0
              L -&cart_in_r;,-2.0
              L -&cart_in_r;,-1.0
              L -19.0,0.0
              L -&cart_in_r;,1.0
              L -&cart_in_r;,2.0
              L -19.5,2.0
              L -18.0,0.5
              L -6.8660254,0.5
              M 6.8660254,0.5
              L 4.8453,-3.0
              L 6.0,-3.0
              L 7.443376,-0.5
              L 18.0,-0.5
              L 19.5,-2.0
              L &cart_in_r;,-2.0
              L &cart_in_r;,-1.0
              L 19.0,0.0
              L &cart_in_r;,1.0
              L &cart_in_r;,2.0
              L 19.5,2.0
              L 18.0,0.5
              L 6.8660254,0.5
            "
            fill="SlateGray" stroke="none"
            stroke-width="0.0" stroke-linejoin="round"/>
        </g>
        <g id="bearing">
          <!-- Oil impregnated bronze bushing -->
          <path id="bearing_p" d="
              M -6.0,1.7320508
              L -3.2679492,-3.0
              L -5.0,-3.0
              L -6.8660254,0.5
              L -6.8660254,1.7320508
              L -6.0,1.7320508
            "
            fill="DarkGoldenrod" stroke="none"
            stroke-width="0.0" stroke-linejoin="round"/>
          <path id="bearing_p" d="
              M 6.0,1.7320508
              L 3.2679492,-3.0
              L 5.0,-3.0
              L 6.8660254,0.5
              L 6.8660254,1.7320508
              L 6.0,1.7320508
            "
            fill="DarkGoldenrod" stroke="none"
            stroke-width="0.0" stroke-linejoin="round"/>
        </g>
        <g id="wire12ga">
          <!-- conductor and silicone insulating tubing cross section -->
          <circle cx="0.0" cy="0.0"
            stroke="none" stroke-width="0"
            fill="Maroon" r="&tube_out_r;"/>
          <circle cx="0.0" cy="0.0"
            stroke="none" stroke-width="0"
            fill="white" r="&tube_in_r;"/>
          <circle cx="0.0" cy="0.0"
            stroke="none" stroke-width="0"
            fill="Chocolate" r="&radius12ga;"/>
        </g>
        <g id="coil_0">
          <!-- 5 turn 12 gauge (.0808"==2.05232 mm) double pancake coil with
               1/8 " x 3/32 " silicone tube insulation -->
          <!-- use id="l_turn_00" xlink:href="#wire12ga"
            transform="translate(-17.0,-1.75) scale(1.0,-1.0)" / -->
          <use id="r_turn_00" xlink:href="#wire12ga"
            transform="translate(15.25,-1.75)" />
          <use id="l_turn_01" xlink:href="#wire12ga"
            transform="translate(-13.5,-1.75)" />
          <use id="r_turn_01" xlink:href="#wire12ga"
            transform="translate(11.75,-1.75)" />
          <use id="l_turn_02" xlink:href="#wire12ga"
            transform="translate(-10.0,-1.75)" />
          <use id="r_turn_12" xlink:href="#wire12ga"
            transform="translate(10.0,1.75)" />
          <use id="l_turn_13" xlink:href="#wire12ga"
            transform="translate(-11.75,1.75)" />
          <use id="r_turn_13" xlink:href="#wire12ga"
            transform="translate(13.5,1.75)" />
          <use id="l_turn_4" xlink:href="#wire12ga"
            transform="translate(-15.25,1.75)" />
          <!-- use id="r_turn_4" xlink:href="#wire12ga"
            transform="translate(17.0,1.75)" / -->
          <path id="leads" d="
              M -17.0,-1.75
              L -30.0,-1.75
              M 17.0,1.75
              L 30.0,1.75
            "
            fill="none" stroke="Chocolate"
            stroke-width="&dia12ga;" stroke-linecap="round"/>
          <path id="lead_tubes" d="
              M -27.0,-3.13906
              L -17.0,-3.13906
              A 1.3890625,1.3890625 0 0 1 -17.0,-0.36094
              L -27.0,-0.36094
              M 27.0,3.13906
              L 17.0,3.13906
              A 1.3890625,1.3890625 0 0 1  17.0,0.36094
              L 27.0,0.36094
            "
            fill="none" stroke="Maroon"
            stroke-width="&tube_wall;" stroke-linejoin="miter"/>
          <path id="lead_tube_space" d="
              M -27.0,-2.8583925
              L -17.0,-2.8583925
              A 1.1083925,1.1083925 0 0 1 -17.0,-0.6416075
              L -27.0,-0.6416075
              M 27.0,2.8583925
              L 17.0,2.8583925
              A 1.1083925,1.1083925 0 0 1 17.0,0.6416075
              L 27.0,0.6416075
            "
            fill="none" stroke="White"
            stroke-width="0.164465" stroke-linejoin="miter"/>
        </g>
        <g id="wire20ga">
          <!-- conductor and polymer film insulation -->
          <circle cx="0.0" cy="0.0"
            stroke="none" stroke-width="0"
            fill="Maroon" r="0.45"/>
          <circle cx="0.0" cy="0.0"
            stroke="none" stroke-width="0"
            fill="Chocolate" r="0.4064"/>
        </g>
        <g id="coil_1">
          <!-- 5 turn 20 gauge (.032"==.8128 mm) double pancake magnet wire coil -->
          <!-- use id="l_turn_00" xlink:href="#wire20ga"
            transform="translate(-17.0,-0.5) scale(1.0,-1.0)" / -->
          <use id="r_turn_00" xlink:href="#wire20ga"
            transform="translate(16.5,-0.5)" />
          <use id="l_turn_01" xlink:href="#wire20ga"
            transform="translate(-16.0,-0.5)" />
          <use id="r_turn_01" xlink:href="#wire20ga"
            transform="translate(15.5,-0.5)" />
          <use id="l_turn_02" xlink:href="#wire20ga"
            transform="translate(-15.0,-0.5)" />
          <use id="r_turn_12" xlink:href="#wire20ga"
            transform="translate(15.0,0.5)" />
          <use id="l_turn_13" xlink:href="#wire20ga"
            transform="translate(-15.5,0.5)" />
          <use id="r_turn_13" xlink:href="#wire20ga"
            transform="translate(16.0,0.5)" />
          <use id="l_turn_4" xlink:href="#wire20ga"
            transform="translate(-16.5,0.5)" />
          <!-- use id="r_turn_4" xlink:href="#wire20ga"
            transform="translate(17.0,0.5)" / -->
          <path id="leads" d="
              M -17.0,-0.5
              L -30.0,-0.5
              M 17.0,0.5
              L 30.0,0.5
            "
            fill="none" stroke="Chocolate"
            stroke-width="0.8128" stroke-linecap="round"/>
          <path id="insulation" d="
              M -27.0,-0.9282
              L -17.0,-0.9282
              A 0.4282,0.4282 0 0 1 -17.0,-0.0718
              L -27.0,-0.0718
              M 27.0,0.9282
              L 17.0,0.9282
              A 0.4282,0.4282 0 0 1  17.0,0.0718
              L 27.0,0.0718
            "
            fill="none" stroke="Maroon"
            stroke-width=".0436" stroke-linejoin="miter"/>
        </g>
        <g id="optical_fiber">
          <!-- Fiber leading infrared radiation to an electro-optical pyrometer
               constructed from a #15H (heavy wall) hypotube and a 1.2 mm OD
               1.0 mm ID boro-silicate capillary. -->
          <rect id="ss_hypotube" x="0.5" y="-0.9144"
            width="20.0" height="1.8288"
            fill="SlateGray" stroke-linejoin="round"/>
          <rect id="clearance" x="0.5" y="-0.635"
            width="20.0" height="1.27"
            fill="White" stroke-linejoin="round"/>
          <rect id="boro_silicate" x="0.5" y="-0.6"
            width="20.0" height="1.2"
            fill="Salmon" stroke-linejoin="round"/>
          <rect id="air" x="0.5" y="-0.345"
            width="20.0" height="0.69"
            fill="PeachPuff" stroke-linejoin="round"/>
        </g>
        <linearGradient
          id="cart_grad" gradientUnits="objectBoundingBox"
          x1="0%" x2="100%" y1="0%" y2="0%">
            <stop stop-color="AliceBlue" offset="0%"/>
            <stop stop-color="PowderBlue" offset="24%"/>
            <stop stop-color="CadetBlue" offset="50%"/>
            <stop stop-color="PowderBlue" offset="76%"/>
            <stop stop-color="AliceBlue" offset="100%"/>
        </linearGradient>
        <linearGradient
          id="hole_grad" gradientUnits="objectBoundingBox"
          x1="0%" x2="0%" y1="0%" y2="100%">
            <stop stop-color="AliceBlue" offset="0%"/>
            <stop stop-color="PowderBlue" offset="24%"/>
            <stop stop-color="CadetBlue" offset="50%"/>
            <stop stop-color="PowderBlue" offset="76%"/>
            <stop stop-color="AliceBlue" offset="100%"/>
        </linearGradient>
        <g id="compressed_Oring"> <!-- 1.5mm O-ring in half 2mm diagonal square -->
          <path id="Oring_p" d="
              M 0.0,-0.41923276684903
              L 0.0, 0.41923276684903
              A 0.24056166455303,0.24056166455303 0 0 0 0.410664448852,0.589335551148
              L 0.59175170953614,0.40824829046386
              A 0.57735026918963,0.57735026918963 0 0 0 0.59175170953614,-0.40824829046386
              L 0.410664448852,-0.589335551148
              A 0.24056166455303,0.24056166455303 0 0 0 0.0,-0.41923276684903
            "
            fill="Olive" stroke="none"
            stroke-width="0.0" stroke-linejoin="round"/>
        </g>
        <g id="cartridge_profile"> <!-- #14 Stubbs gauge 304 stainless steel tubing -->
          <path id="cartridge_p" d="
              M -&cart_out_r;,-2.0
              L -&cart_in_r;,-2.0
              L -&cart_in_r;,-1.0
              L        -21.0, 0.0
              L -&cart_in_r;, 1.0
              L -&cart_in_r;, &cart_len_y;
              L -&cart_thd_r;,&cart_len_y;
              L -&cart_thd_r;,67.5
              L -&cart_out_r;,67.0
              L -&cart_thd_r;,66.5
              L -&cart_out_r;,66.0
              L -&cart_thd_r;,65.5
              L -&cart_out_r;,65.0
              L -&cart_thd_r;,64.5
              L -&cart_out_r;,64.0
              L -&cart_thd_r;,63.5
              L -&cart_out_r;,63.0
              L -&cart_thd_r;,62.5
              L -&cart_out_r;,62.0
              L -&cart_thd_r;,61.5
              L -&cart_out_r;,61.0
              L -&cart_thd_r;,60.5
              L -&cart_out_r;,60.0
              L -&cart_out_r;,-2.0
            "
            fill="Silver" stroke="none"
            stroke-width="0.0" stroke-linejoin="round"/>
          <!-- binding wire, #24 piano wire gauge .0551" == 1.4 mm -->
        </g>
        <g id="brass_ring">
          <rect id="brass_ll" x="-7.14375" y="-2.5"
            width="0.254" height="5.0"
            fill="GoldenRod" stroke-linejoin="round"/>
          <rect id="brass_lr" x="6.88974" y="-2.5"
            width="0.254" height="5.0"
            fill="GoldenRod" stroke-linejoin="round"/>
        </g>
        <g id="lower_subassembly">
          <rect id="silicone_ll" x="-8.0" y="0.5"
            width="1.0" height="25.0"
            fill="Maroon" stroke-linejoin="round"/>
          <rect id="silicone_lr" x="7.0" y="0.5"
            width="1.0" height="25.0"
            fill="Maroon" stroke-linejoin="round"/>
          <use id="lower_sensor" xlink:href="#sensor"
            transform="translate(0.0,0.0)" />
          <use id="brass_l" xlink:href="#brass_ring"
            transform="translate(0.0,3.0)" />
          <use id="brass_m" xlink:href="#brass_ring"
            transform="translate(0.0,23.0)" />
          <use id="lower_bearing" xlink:href="#bearing"
            transform="translate(0.0,0.0)" />
          <circle cx="-&cart_in_r;" cy="0.0"
            stroke="none" stroke-width="0"
            fill="CadetBlue" r="0.7"/>
          <circle cx="&cart_in_r;" cy="0.0"
            stroke="none" stroke-width="0"
            fill="CadetBlue" r="0.7"/>
          <use id="heating_coil" xlink:href="#coil_0"
            transform="translate(0.0,13.0)" />
          <use id="hot_fiber" xlink:href="#optical_fiber"
            transform="translate(6.0,3.0)" />
          <use id="warm_fiber" xlink:href="#optical_fiber"
            transform="translate(6.0,23.0)" />
        </g>
        <g id="upper_subassembly">7.14375
          <rect id="silicone_ul" x="-8.0" y="-5.5"
            width="1.0" height="5.0"
            fill="Maroon" stroke-linejoin="round"/>
          <rect id="silicone_ur" x="7.0" y="-5.5"
            width="1.0" height="5.0"
            fill="Maroon" stroke-linejoin="round"/>
          <use id="brass_u" xlink:href="#brass_ring"
            transform="translate(0.0,-3.0)" />
          <use id="upper_sensor" xlink:href="#sensor"
            transform="translate(0.0,0.0) scale(1.0,-1.0)" />
          <use id="upper_bearing" xlink:href="#bearing"
            transform="translate(0.0,0.0) scale(1.0,-1.0)" />
          <use id="Oring_l" xlink:href="#compressed_Oring"
            transform="translate(-&cart_in_r;,0.0)" />
          <use id="Oring_r" xlink:href="#compressed_Oring"
            transform="translate(&cart_in_r;,0.0) scale(-1.0,1.0)" />
          <use id="top_heating_coil" xlink:href="#coil_1"
            transform="translate(0.0,-5.5)" />
          <use id="cool_fiber" xlink:href="#optical_fiber"
            transform="translate(6.0,-3.0)" />
        </g>
      </defs>
      <!-- Cartridge background -->
      <rect id="cartridge_background" x="-&cart_out_r;" y="-2.0"
        width="&cart_out_d;" height="&cart_len;"
        fill="url(#cart_grad)" stroke-linejoin="round"/>
      <!-- Die section outline material: tool steel -->
      <!-- Die section at reference extends from [-5.0,0.0] to [5.0,0.0] -->
      <path id="die" d="
          M -0.2,-0.92376
          L -0.2,-6.06218
          L -1.5,-6.06218
          L -6.0,1.7320508
          L -6.0,26.0
          L -5.72,54.0
          L -5.72,58.7529234
          L -1.5,66.06218
          L -1.0,66.06218
          L -1.0,0.0
          L -0.2,-0.92376
          M 0.2,-0.92376
          L 0.2,-6.06218
          L 1.5,-6.06218
          L 6.0,1.7320508
          L 6.0,26.0
          L 5.72,54.0
          L 5.72,58.7529234
          L 1.5,66.06218
          L 1.0,66.06218
          L 1.0,0.0
          L 0.2,-0.92376
        "
        fill="SteelBlue" stroke="none"
        stroke-width="0.0" stroke-linejoin="round"/>
      <!-- Die section outline material: tool steel -->
      <path id="carbide" d="
          M -0.2,-0.92376
          L -0.2,-6.06218
          L -1.0,-6.06218
          L -1.0,0.0
          L -0.2,-0.92376
          M 0.2,-0.92376
          L 0.2,-6.06218
          L 1.0,-6.06218
          L 1.0,0.0
          L 0.2,-0.92376
        "
        fill="Sienna" stroke="none"
        stroke-width="0.0" stroke-linejoin="round"/>
      <!-- Molten plastic section outline -->
      <path id="molten" d="
          M 0.2,-0.92376
          L 0.2,-6.06218
          L -0.2,-6.06218
          L -0.2,-0.92376
          L -1.0,0.0
          L -1.0,16.0
          A 1.0,1.0 0 0 0 1.0,16.0
          L 1.0,0.0
          L 0.2,-0.92376
        "
        fill="DarkOrange" stroke="none"
        stroke-width="0.0" stroke-linejoin="round"/>
      <!-- Filament section outline -->
      <rect id="filament" x="-0.875" y="23.0" width="1.75" height="55.0"
        fill="Brown" stroke-linejoin="round"/>
      <!-- Plastic section outline -->
      <path id="plastic" d="
          M -1.0,23.0
          L -1.0,16.0
          A 1.0,1.0 0 0 0 1.0,16.0
          L 1.0,23.0
          A 1.0,1.0 0 0 1 -1.0,23.0
        "
        fill="Red" stroke="none"
        stroke-width="0.0" stroke-linejoin="round"/>
      <use id="cartridge_l" xlink:href="#cartridge_profile"
        transform="scale(1.0,1.0)" />
      <use id="cartridge_r" xlink:href="#cartridge_profile"
        transform="scale(-1.0,1.0)" />
      <use id="lower" xlink:href="#lower_subassembly"
        transform="translate(0.0,0.0)" />
      <use id="upper" xlink:href="#upper_subassembly"
        transform="translate(0.0,60.0)" />
    </g>
  </g>
</svg>
